<svg viewBox="0 0 501 94" fill="none" xmlns="http://www.w3.org/2000/svg">
<path d="M18.0798 92.3256C18.0798 64.5459 18.0798 46.3361 18.0798 22.6884L0.332031 1.60654H57.7337C64.552 1.60654 70.5181 2.83208 75.6318 5.28315C80.7455 7.73422 84.7229 11.2632 87.5638 15.87C90.4048 20.4768 91.8253 25.9991 91.8253 32.4369C91.8253 38.9337 90.36 44.4117 87.4293 48.8708C84.5285 53.33 80.4465 56.6966 75.1832 58.9704C69.9499 61.2443 63.8343 62.3813 56.8366 62.3813H33.1519V43.2452H51.8125C54.7432 43.2452 57.2403 42.8908 59.3037 42.1821C61.3971 41.4438 62.997 40.2773 64.1035 38.6827C65.2398 37.088 65.808 35.0061 65.808 32.4369C65.808 29.8381 65.2398 27.7267 64.1035 26.1025C62.997 24.4487 61.3971 23.238 59.3037 22.4702C57.2403 21.6728 54.7432 21.2742 51.8125 21.2742H43.0205V92.3256H18.0798ZM71.9086 50.687L94.8756 92.3256H67.7818L45.3531 50.687H71.9086Z" fill="white"/>
<path d="M104.804 92.3256V1.49762H129.101V92.3256H104.804ZM121.878 92.3256L121.878 72.8558H159.307L159.307 92.3256H121.878ZM121.878 57.6044L121.878 38.6827H159.307L159.307 57.6044H121.878ZM121.878 22.4702L121.878 1.49762H159.307V22.4702H121.878Z" fill="white"/>
<path d="M208.041 92.3256L240.348 1.49761H266.615L231.549 92.3256H208.041ZM205.283 92.3256L169.955 1.49761H196.221L228.791 92.3256H205.283Z" fill="white"/>
<path d="M317.502 93.8827C307.871 93.8827 299.334 91.8931 291.892 87.914C284.537 83.8483 278.759 78.3122 274.556 71.3054C270.354 64.2122 268.252 56.1242 268.252 47.0414C268.252 37.8721 270.354 29.7841 274.556 22.7773C278.759 15.6841 284.537 10.1479 291.892 6.16876C299.247 2.10313 307.696 0.0703125 317.239 0.0703125C326.87 0.0703125 335.363 2.10313 342.717 6.16876C350.072 10.1479 355.851 15.6841 360.053 22.7773C364.256 29.7841 366.357 37.8721 366.357 47.0414C366.357 56.1242 364.256 64.2122 360.053 71.3054C355.938 78.3122 350.203 83.8483 342.849 87.914C335.494 91.8931 327.045 93.8827 317.502 93.8827ZM317.502 71.8245C322.23 71.8245 326.388 70.7864 329.978 68.7103C333.568 66.5478 336.37 63.6067 338.383 59.8871C340.397 56.1674 341.404 51.8855 341.404 47.0414C341.404 42.1972 340.353 37.9153 338.252 34.1957C336.238 30.3896 333.393 27.4485 329.716 25.3724C326.126 23.2098 321.967 22.1285 317.239 22.1285C312.599 22.1285 308.44 23.2098 304.763 25.3724C301.173 27.4485 298.327 30.3896 296.226 34.1957C294.212 37.9153 293.205 42.1972 293.205 47.0414C293.205 51.8855 294.256 56.1674 296.357 59.8871C298.459 63.6067 301.304 66.5478 304.894 68.7103C308.571 70.7864 312.774 71.8245 317.502 71.8245Z" fill="white"/>
<path d="M377.504 92.3256V1.49761H401.8V92.3256H377.504ZM391.162 92.3256L391.162 71.8245L431.366 71.8245L431.366 92.3256L391.162 92.3256Z" fill="white"/>
<path d="M450.163 92.3256V9.02337H474.46V92.3256H450.163ZM424.16 22.1286L424.16 1.49761H500.332L500.332 22.1286H424.16Z" fill="white"/>
</svg>
